<svg width="62" height="47" viewBox="0 0 62 47" fill="none" xmlns="http://www.w3.org/2000/svg">
<path d="M38.4824 1.43832H22.8303C20.9383 1.43794 19.0648 1.81027 17.3167 2.53404C15.5686 3.25782 13.9802 4.31887 12.6422 5.65658C11.3042 6.9943 10.2428 8.58249 9.51871 10.3304C8.79458 12.0784 8.42187 13.9519 8.42188 15.8439V31.4959C8.42188 35.3173 9.9399 38.9821 12.642 41.6842C15.3441 44.3863 19.009 45.9044 22.8303 45.9044H38.4824C42.3037 45.9044 45.9686 44.3863 48.6707 41.6842C51.3728 38.9821 52.8908 35.3173 52.8908 31.4959V15.8439C52.8908 12.0225 51.3728 8.35767 48.6707 5.65556C45.9686 2.95345 42.3037 1.43542 38.4824 1.43542V1.43832Z" stroke="black" stroke-width="1.5"/>
<path d="M52.6531 34.0467H57.3354C58.1216 34.0467 58.8756 33.7344 59.4315 33.1785C59.9875 32.6225 60.2998 31.8685 60.2998 31.0823V16.2603C60.2998 15.4741 59.9875 14.7201 59.4315 14.1642C58.8756 13.6082 58.1216 13.2959 57.3354 13.2959H52.6502M8.66132 34.0467H3.97612C3.58683 34.0467 3.20135 33.97 2.84169 33.8211C2.48204 33.6721 2.15524 33.4537 1.87997 33.1785C1.6047 32.9032 1.38635 32.5764 1.23737 32.2167C1.0884 31.8571 1.01172 31.4716 1.01172 31.0823V16.2603C1.01172 15.4741 1.32404 14.7201 1.87997 14.1642C2.43591 13.6082 3.18991 13.2959 3.97612 13.2959H8.66132" stroke="black" stroke-width="1.5"/>
<path d="M3.94922 13.296V1.43835M57.3374 13.296L57.3085 1.43835M21.7356 14.3082V22.1111M39.5221 14.3082V22.1111M24.7 34.0468H36.5577" stroke="black" stroke-width="1.5" stroke-linecap="round" stroke-linejoin="round"/>
</svg>
